<?xml version="1.0" standalone="no"?><!DOCTYPE svg PUBLIC "-//W3C//DTD SVG 1.1//EN" "http://www.w3.org/Graphics/SVG/1.1/DTD/svg11.dtd"><svg t="1725631644307" class="icon" viewBox="0 0 1024 1024" version="1.1" xmlns="http://www.w3.org/2000/svg" p-id="4271" xmlns:xlink="http://www.w3.org/1999/xlink" width="200" height="200"><path d="M298.666667 170.666667a85.333333 85.333333 0 0 1 85.333333-85.333334h256a85.333333 85.333333 0 0 1 85.333333 85.333334v85.333333h170.666667a42.666667 42.666667 0 1 1 0 85.333333h-45.610667l-36.992 518.058667A85.333333 85.333333 0 0 1 728.277333 938.666667H295.68a85.333333 85.333333 0 0 1-85.12-79.274667L173.653333 341.333333H128a42.666667 42.666667 0 0 1 0-85.333333h170.666667V170.666667z m85.333333 85.333333h256V170.666667H384v85.333333zM259.157333 341.333333l36.565334 512H728.32l36.565333-512H259.157333zM426.666667 426.666667a42.666667 42.666667 0 0 1 42.666666 42.666666v256a42.666667 42.666667 0 1 1-85.333333 0v-256a42.666667 42.666667 0 0 1 42.666667-42.666666z m170.666666 0a42.666667 42.666667 0 0 1 42.666667 42.666666v256a42.666667 42.666667 0 1 1-85.333333 0v-256a42.666667 42.666667 0 0 1 42.666666-42.666666z" fill="#1296db" p-id="4272"></path></svg>