<?xml version="1.0" standalone="no"?><!DOCTYPE svg PUBLIC "-//W3C//DTD SVG 1.1//EN" "http://www.w3.org/Graphics/SVG/1.1/DTD/svg11.dtd"><svg t="1725632114537" class="icon" viewBox="0 0 1024 1024" version="1.1" xmlns="http://www.w3.org/2000/svg" p-id="9212" xmlns:xlink="http://www.w3.org/1999/xlink" width="200" height="200"><path d="M832 16A176 176 0 0 1 1008 192a48 48 0 0 1-95.552 6.528L912 192a80 80 0 0 0-71.808-79.616L832 112H192a80 80 0 0 0-79.616 71.808L112 192v640c0 41.408 31.488 75.52 71.808 79.616L192 912h640a80 80 0 0 0 79.616-71.808L912 832a48 48 0 1 1 96 0 176 176 0 0 1-165.248 175.68L832 1008H192a176 176 0 0 1-175.68-165.248L16 832V192A176 176 0 0 1 181.248 16.32L192 16h640z m-67.84 280.256L967.68 499.84a48 48 0 0 1 0 67.84l-203.648 203.648a48 48 0 1 1-67.84-67.84L823.68 576H368a48 48 0 0 1 0-96h444.096l-115.84-115.84a48 48 0 1 1 67.84-67.904z" fill="#1296db" p-id="9213"></path></svg>